<svg width="106" height="106" xmlns="http://www.w3.org/2000/svg" xmlns:xlink="http://www.w3.org/1999/xlink" xml:space="preserve" overflow="hidden"><g transform="translate(-632 -502)"><g><g><g><g><path d="M685.5 566.438 685.5 588.312 663.625 588.312 652.688 577.375 652.688 544.562 663.618 544.554M685.5 522.688C673.425 522.688 663.625 532.487 663.625 544.562 663.625 556.638 673.425 566.438 685.5 566.438 691.537 566.438 697.006 563.987 700.966 560.028 704.925 556.069 707.375 550.6 707.375 544.562 707.375 532.487 697.575 522.688 685.5 522.688ZM718.312 577.375 700.959 560.022M663.625 588.312 663.625 577.375 652.688 577.375M670.772 550.526 676.75 540.179 679.434 548.426 685.493 537.991 690.372 548.426 698.625 534.71" stroke="#E97132" stroke-width="2.1875" stroke-linecap="butt" stroke-linejoin="round" stroke-miterlimit="10" stroke-opacity="1" fill="none" fill-rule="nonzero"/></g></g></g></g></g></svg>