<svg width="106" height="106" xmlns="http://www.w3.org/2000/svg" xmlns:xlink="http://www.w3.org/1999/xlink" xml:space="preserve" overflow="hidden"><g transform="translate(-636 -346)"><g><g><g><g><path d="M689.498 407.504C679.037 413.544 665.661 409.958 659.621 399.498 653.581 389.037 657.167 375.661 667.627 369.621 678.088 363.581 691.464 367.167 697.504 377.627 703.544 388.088 699.958 401.464 689.498 407.504ZM694.969 403.05 694.969 385.55M684.158 372.848 699.313 381.598M682.907 367.11 667.752 375.86M662.156 374.075 662.156 391.575M657.812 395.527 672.967 404.277M674.218 410.015 689.373 401.265M673.094 414.812 673.094 423.562M694.969 410.438 694.969 423.562M716.844 423.562 716.844 390.708 705.55 384.188" stroke="#E97132" stroke-width="2.1875" stroke-linecap="butt" stroke-linejoin="round" stroke-miterlimit="10" stroke-opacity="1" fill="none" fill-rule="nonzero"/><path d="M673.094 432.312C670.679 432.312 668.719 430.353 668.719 427.938 668.719 425.522 670.679 423.562 673.094 423.562 675.511 423.562 677.469 425.522 677.469 427.938 677.469 430.353 675.511 432.312 673.094 432.312ZM699.344 427.938C699.344 425.522 697.386 423.562 694.969 423.562 692.554 423.562 690.594 425.522 690.594 427.938 690.594 430.353 692.554 432.312 694.969 432.312 697.386 432.312 699.344 430.353 699.344 427.938ZM721.219 427.938C721.219 425.522 719.261 423.562 716.844 423.562 714.429 423.562 712.469 425.522 712.469 427.938 712.469 430.353 714.429 432.312 716.844 432.312 719.261 432.312 721.219 430.353 721.219 427.938Z" stroke="#E97132" stroke-width="2.1875" stroke-linecap="butt" stroke-linejoin="round" stroke-miterlimit="10" stroke-opacity="1" fill="none" fill-rule="nonzero"/></g></g></g></g></g></svg>