<svg width="106" height="106" xmlns="http://www.w3.org/2000/svg" xmlns:xlink="http://www.w3.org/1999/xlink" xml:space="preserve" overflow="hidden"><g transform="translate(-40 -164)"><g><g><g><g><path d="M93.5 248.125 67.25 232.812 67.25 202.188M119.75 215.312 119.75 202.188 93.5 186.875 84.75 191.961 84.75 210.938M76 195.625 76 217.5M118.656 237.188C115.635 237.188 113.188 239.635 113.188 242.656 113.188 245.677 115.635 248.125 118.656 248.125 121.677 248.125 124.125 245.677 124.125 242.656 124.125 239.635 121.677 237.188 118.656 237.188ZM108.436 232.436 114.789 238.789M102.25 217.5C97.4178 217.5 93.5 221.418 93.5 226.25 93.5 231.082 97.4178 235 102.25 235 107.082 235 111 231.082 111 226.25 111 221.418 107.082 217.5 102.25 217.5Z" stroke="#E97132" stroke-width="2.1875" stroke-linecap="butt" stroke-linejoin="round" stroke-miterlimit="4" stroke-opacity="1" fill="none" fill-rule="nonzero"/></g></g></g></g></g></svg>