<svg width="105" height="106" xmlns="http://www.w3.org/2000/svg" xmlns:xlink="http://www.w3.org/1999/xlink" xml:space="preserve" overflow="hidden"><g transform="translate(-40 -502)"><g><g><g><g><path d="M55.25 63.9167C55.25 65.7116 53.7949 67.1667 52 67.1667 50.2051 67.1667 48.75 65.7116 48.75 63.9167 48.75 62.1217 50.2051 60.6667 52 60.6667 53.7949 60.6667 55.25 62.1217 55.25 63.9167Z" stroke="#E97132" stroke-width="2.16667" stroke-linecap="butt" stroke-linejoin="miter" stroke-miterlimit="4" stroke-opacity="1" fill="#000000" fill-rule="nonzero" fill-opacity="1" transform="matrix(1 0 0 1.00962 41 503)"/><path d="M62.8333 45.5 62.8333 30.3333C62.8333 24.3512 57.9822 19.5 52 19.5 46.0178 19.5 41.1667 24.3512 41.1667 30.3333L41.1667 45.5M52 63.9167 52 71.5" stroke="#E97132" stroke-width="2.16667" stroke-linecap="butt" stroke-linejoin="round" stroke-miterlimit="10" stroke-opacity="1" fill="none" fill-rule="nonzero" transform="matrix(1 0 0 1.00962 41 503)"/><path d="M30.3333 45.5 73.6667 45.5 73.6667 84.5 30.3333 84.5Z" stroke="#E97132" stroke-width="2.16667" stroke-linecap="butt" stroke-linejoin="round" stroke-miterlimit="10" stroke-opacity="1" fill="none" fill-rule="nonzero" transform="matrix(1 0 0 1.00962 41 503)"/></g></g></g></g></g></svg>